<?xml version="1.0" encoding="UTF-8"?>
<!DOCTYPE svg PUBLIC "-//W3C//DTD SVG 1.1//EN" "http://www.w3.org/Graphics/SVG/1.1/DTD/svg11.dtd">
<!-- Creator: CorelDRAW 2019 (64-Bit) -->
<svg xmlns="http://www.w3.org/2000/svg" xml:space="preserve" width="1400px" height="700px" version="1.1" style="shape-rendering:geometricPrecision; text-rendering:geometricPrecision; image-rendering:optimizeQuality; fill-rule:evenodd; clip-rule:evenodd"
viewBox="0 0 1400 700"
 xmlns:xlink="http://www.w3.org/1999/xlink"
 xmlns:xodm="http://www.corel.com/coreldraw/odm/2003">
 <defs>
  <style type="text/css">
   <![CDATA[
    .fil2 {fill:#FFD543}
    .fil0 {fill:#9C27B0;fill-rule:nonzero}
    .fil1 {fill:url(#id0)}
   ]]>
  </style>
  <linearGradient id="id0" gradientUnits="userSpaceOnUse" x1="647.491" y1="400.094" x2="782.761" y2="110.531">
   <stop offset="0" style="stop-opacity:1; stop-color:#9C27B0"/>
   <stop offset="1" style="stop-opacity:1; stop-color:#C152D4"/>
  </linearGradient>
 </defs>
 <g id="Layer_x0020_1">
  <metadata id="CorelCorpID_0Corel-Layer"/>
  <g id="_1496838580464">
   <path class="fil0" d="M203.572 645.299l-10.285 -10.286c10.285,-15.474 16.241,-33.926 16.241,-53.731 0,-54.542 -44.123,-98.664 -98.531,-98.664 -54.407,0 -98.528,44.122 -98.528,98.664 0,54.544 44.121,98.666 98.528,98.666 19.761,0 38.167,-5.956 53.596,-16.242l10.286 10.286c4.061,4.06 9.205,5.956 14.347,5.956 5.143,0 10.287,-1.896 14.346,-5.956 7.85,-7.85 7.85,-20.572 0,-28.422l0 -0.271zm-92.846 -5.684c-32.211,0 -58.197,-26.03 -58.197,-58.333 0,-32.301 25.986,-58.332 58.197,-58.332 32.212,0 58.199,26.031 58.199,58.332 0,8.708 -1.895,16.828 -5.413,24.137l-38.437 -38.528c-7.841,-7.859 -20.585,-7.861 -28.423,0 -7.862,7.884 -7.864,20.631 0,28.513l38.438 38.527c-7.31,3.518 -15.431,5.413 -24.093,5.413l-0.271 0.271zm178.653 39.249c36.542,0 66.318,-29.775 66.318,-66.317l0 -51.972c0,-10.827 -8.661,-19.489 -19.49,-19.489 -10.826,0 -19.489,8.662 -19.489,19.489l0 51.972c0,15.158 -12.18,27.338 -27.339,27.338 -15.159,0 -27.339,-12.18 -27.339,-27.338l0 -51.972c0,-10.827 -8.662,-19.489 -19.489,-19.489 -10.827,0 -19.488,8.662 -19.488,19.489l0 51.972c0,36.542 29.774,66.317 66.316,66.317zm103.942 -156.185c5.415,0 10.557,-2.167 14.347,-5.956 3.789,-3.789 5.956,-8.932 5.956,-14.345 0,-5.414 -2.166,-10.557 -5.956,-14.346 -7.579,-7.58 -21.112,-7.58 -28.692,0 -3.79,3.789 -5.955,8.932 -5.955,14.346 0,5.413 2.166,10.556 5.955,14.345 3.791,3.789 8.932,5.956 14.345,5.956zm0 156.185c11.1,0 20.032,-8.933 20.032,-20.03l0 -97.176c0,-11.099 -8.932,-20.031 -20.032,-20.031 -11.097,0 -20.029,8.932 -20.029,20.031l0 97.176c0,11.097 8.932,20.03 20.029,20.03zm105.569 0c17.593,0 35.189,-6.767 48.452,-20.03 7.849,-7.85 7.849,-20.572 0,-28.422 -7.851,-7.85 -20.573,-7.85 -28.423,0 -11.097,11.098 -28.963,11.098 -40.06,0 -5.414,-5.414 -8.392,-12.451 -8.392,-20.031 0,-7.579 2.978,-14.616 8.392,-20.03 11.097,-11.098 28.963,-11.099 40.06,0 7.85,7.85 20.573,7.85 28.423,0 7.849,-7.849 7.849,-20.572 0,-28.422 -26.798,-26.799 -70.38,-26.799 -97.176,0 -12.993,12.993 -20.031,30.316 -20.031,48.723 0,18.407 7.038,35.73 20.031,48.724 13.263,13.262 30.858,20.03 48.453,20.03l0.271 -0.542zm186.231 -37.354l-53.055 -32.212 53.055 -32.211c9.444,-5.733 12.45,-18.137 6.767,-27.61 -5.684,-9.475 -18.163,-12.496 -27.611,-6.768l-50.889 30.859 0 -70.649c0,-11.098 -8.932,-20.031 -20.03,-20.031 -11.098,0 -20.03,8.934 -20.03,20.031l0 155.915c0,11.097 8.932,20.03 20.03,20.03 11.098,0 20.03,-8.933 20.03,-20.03l0 -13.535 50.889 30.859c3.216,1.949 6.768,2.706 10.286,2.706 6.768,0 13.559,-3.504 17.325,-9.744 5.708,-9.459 2.675,-21.876 -6.767,-27.61zm226.275 38.707c11.099,0 20.302,-9.203 20.302,-20.301l0 -156.997c0,-8.391 -5.414,-15.97 -13.264,-18.948 -7.85,-2.978 -16.782,-0.541 -22.196,5.955l-64.964 76.333 -64.965 -76.333c-5.413,-6.496 -14.346,-8.933 -22.195,-5.955 -7.85,2.978 -13.264,10.557 -13.264,18.948l0 156.997c0,11.098 9.203,20.301 20.301,20.301 11.098,0 20.301,-9.203 20.301,-20.301l0 -102.048 44.663 52.513c3.79,4.602 9.475,7.309 15.429,7.309 5.955,0 11.64,-2.707 15.429,-7.309l44.664 -52.513 0 102.048c0,11.098 9.203,20.301 20.301,20.301l-0.542 0zm154.019 -138.59c-6.496,0 -12.451,3.248 -16.24,8.121 -9.745,-4.873 -20.843,-7.85 -32.482,-7.85 -37.897,0 -68.755,30.858 -68.755,68.619 0,37.76 30.858,68.618 68.755,68.618 11.639,0 22.737,-2.977 32.482,-8.121 3.789,4.873 9.744,8.121 16.24,8.121 11.099,0 20.032,-8.933 20.032,-20.03l0 -96.906c0,-11.098 -8.933,-20.03 -20.032,-20.03l0 -0.542zm-48.452 97.447c-15.699,0 -28.421,-12.632 -28.421,-28.287 0,-15.654 12.722,-28.286 28.421,-28.286 15.699,0 28.422,12.632 28.422,28.286 0,15.655 -12.723,28.287 -28.422,28.287zm194.352 -0.542c-15.699,0 -28.421,-12.631 -28.421,-28.286l0 -28.287 22.737 0c11.098,0 20.031,-8.933 20.031,-20.03 0,-11.099 -8.933,-20.031 -20.031,-20.031l-22.737 0 0 -38.889c0,-11.143 -8.934,-20.121 -20.032,-20.121 -11.097,0 -20.03,8.978 -20.03,20.121l0 38.889 -20.302 0c-11.097,0 -20.03,8.932 -20.03,20.031 0,11.097 8.933,20.03 20.03,20.03l20.302 0 0 28.287c0,37.76 30.858,68.618 68.753,68.618 11.099,0 20.031,-8.933 20.031,-20.03 0,-11.099 -8.932,-20.031 -20.031,-20.031l-0.27 -0.271zm107.462 -96.634c-10.015,0 -19.489,2.165 -28.152,6.225l0 -45.114c0,-11.143 -8.932,-20.121 -20.03,-20.121 -11.098,0 -20.031,8.978 -20.031,20.121l0 156.096c0,11.097 8.933,20.03 20.031,20.03 11.098,0 20.03,-8.933 20.03,-20.03l0 -48.453c0,-15.7 12.723,-28.422 28.423,-28.422 15.699,0 28.421,12.722 28.421,28.422l0 48.453c0,11.097 8.934,20.03 20.031,20.03 11.098,0 20.031,-8.933 20.031,-20.03l0 -48.453c0,-37.896 -30.859,-68.754 -68.754,-68.754z"/>
   <g>
    <path class="fil1" d="M500.918 46.88l0 0.904c0,97.847 0,195.693 0,293.539 0,3.626 -0.079,7.962 1.84,11.17 1.84,3.075 5.519,5.174 9.503,6.62 1.711,0.62 3.477,1.121 5.278,1.678 37.619,6.938 74.113,14.341 101.837,25.382 22.262,8.865 38.868,20.075 53.778,31.989 3.176,2.134 6.315,3.909 9.794,5.019 6.23,1.986 13.554,1.835 19.382,-0.213 1.635,-0.574 3.152,-1.298 4.584,-2.128 3.223,-2.636 6.511,-5.245 9.911,-7.807l0.001 -0.001 0 0c12.207,-9.204 25.825,-17.823 42.793,-25.053 0.718,-0.463 1.466,-0.89 2.129,-1.335 1.941,-1.302 3.158,-2.751 3.9,-4.654 0.743,-1.902 1.01,-4.26 0.948,-6.064 -0.038,-1.132 -0.207,-2.047 -0.833,-4.197 -4.615,-14.501 -9.172,-29.054 -13.453,-43.629 -0.88,-2.815 -1.601,-4.999 -2.256,-6.69 -1.335,-3.442 -2.394,-4.838 -3.545,-6.246 -1.152,-1.408 -2.394,-2.828 -4.691,-3.582 -2.298,-0.756 -5.651,-0.846 -10.596,0.773 -4.945,1.618 -11.482,4.944 -14.985,6.733 -1.092,0.557 -1.89,0.966 -2.461,1.231 -7.289,3.891 -14.688,8.001 -22.086,12.112 -20.259,-11.255 -40.518,-22.51 -58.527,-29.264 -9.585,-3.594 -18.532,-5.913 -27.182,-7.635 -1.458,-0.426 -2.898,-0.841 -4.296,-1.28 -5.347,-1.679 -10.064,-3.711 -12.966,-5.97 -2.902,-2.259 -3.989,-4.743 -4.533,-15.984 -0.226,-4.663 -0.358,-10.831 -0.544,-16.974l0 -115.327c0.086,-0.746 0.086,-1.8 0.086,-3.183 0,-3.076 0,-7.78 0.61,-11.108 0.61,-3.328 1.83,-5.28 4.574,-6.005 2.744,-0.725 7.012,-0.222 11.988,0.824 3.792,0.798 7.994,1.91 11.126,2.624 9.061,2.683 18.088,6.089 27.047,10.913 12.556,6.761 24.487,15.879 35.813,25.374 1.729,1.29 3.47,2.562 5.088,3.663 5.112,3.479 9.002,5.251 12.777,5.014 3.775,-0.238 7.435,-2.486 11.3,-5.301 1.121,-0.816 2.261,-1.68 3.423,-2.519 11.628,-9.802 23.9,-19.267 36.833,-26.231 8.867,-4.775 17.801,-8.16 26.769,-10.831 3.165,-0.708 7.549,-1.877 11.489,-2.706 4.976,-1.046 9.244,-1.549 11.988,-0.824 2.744,0.725 3.964,2.677 4.574,6.005 0.572,3.12 0.608,7.449 0.611,10.513l0 1.153 0 81.608c0.306,3.558 0.554,7.05 1.002,9.773 1.001,6.095 3.006,8.342 5.224,10.163 2.218,1.82 4.651,3.212 6.56,4.086 1.207,0.552 2.205,0.897 5.114,1.696 2.112,0.553 4.214,1.117 6.294,1.684l1.152 0.305c9.263,2.457 26.404,7.016 36.347,9.659 9.944,2.643 12.69,3.371 14.996,2.348 2.306,-1.023 4.17,-3.797 5.102,-8.615 0.461,-2.381 0.694,-5.262 0.932,-8.46l0 -208.418c-0.476,-2.064 -0.919,-3.907 -1.776,-5.552 -1.776,-3.411 -5.33,-5.973 -9.285,-7.098 -3.955,-1.126 -8.312,-0.814 -14.109,-0.324 -2.553,0.216 -5.385,0.468 -8.059,0.61 -23.589,2.113 -46.762,5.462 -68.627,12.701 -19.58,6.482 -38.112,16.081 -56.234,26.896l0 -0.454c-1.926,1.384 -3.909,2.724 -5.869,4.004 -4.49,2.751 -8.96,5.565 -13.418,8.412 -2.793,1.686 -5.199,3.001 -7.553,3.853 -3.595,1.3 -7.068,1.521 -10.897,0.307 -2.257,-0.716 -4.637,-1.929 -6.794,-3.172 -6.608,-4.233 -13.238,-8.401 -19.922,-12.407 -0.844,-0.563 -1.671,-1.132 -2.454,-1.696l-0.396 0c-17.505,-10.343 -35.412,-19.492 -54.293,-25.743 -23.897,-7.912 -49.356,-11.177 -75.213,-13.26 -3.876,-0.056 -8.283,-0.15 -11.994,0.2 -6.162,0.581 -10.406,2.387 -12.528,6.544 -2.089,4.091 -2.121,10.461 -2.122,19.858z"/>
    <path class="fil2" d="M783.577 261.979c-10.813,-0.94 -15.514,1.88 -17.865,6.581 -2.35,4.701 -2.35,11.284 4.268,35.312 6.619,24.029 19.855,65.505 26.907,87.601 7.052,22.097 7.919,24.812 11.173,26.64 3.255,1.829 8.896,2.769 12.551,1.571 3.655,-1.199 5.325,-4.537 9.728,-15.869 4.404,-11.331 11.544,-30.655 15.411,-41.21 3.867,-10.555 4.461,-12.339 5.571,-13.603 1.112,-1.265 2.739,-2.011 14.022,-7.182 11.283,-5.172 32.222,-14.769 43.631,-20.038 11.41,-5.269 13.291,-6.209 14.701,-8.56 1.411,-2.35 2.351,-6.111 0.912,-9.413 -1.439,-3.302 -5.258,-6.145 -21.712,-11.317 -16.455,-5.171 -45.546,-12.67 -68.554,-18.771 -23.007,-6.101 -39.931,-10.802 -50.744,-11.742z"/>
   </g>
  </g>
 </g>
</svg>
