<?xml version="1.0" encoding="UTF-8"?>
<!DOCTYPE svg PUBLIC "-//W3C//DTD SVG 1.1//EN" "http://www.w3.org/Graphics/SVG/1.1/DTD/svg11.dtd">
<!-- Creator: CorelDRAW 2019 (64-Bit) -->
<svg xmlns="http://www.w3.org/2000/svg" xml:space="preserve" width="1850px" height="500px" version="1.1" style="shape-rendering:geometricPrecision; text-rendering:geometricPrecision; image-rendering:optimizeQuality; fill-rule:evenodd; clip-rule:evenodd"
viewBox="0 0 1850 500"
 xmlns:xlink="http://www.w3.org/1999/xlink"
 xmlns:xodm="http://www.corel.com/coreldraw/odm/2003">
 <defs>
  <style type="text/css">
   <![CDATA[
    .fil2 {fill:#FFD543}
    .fil0 {fill:#9C27B0;fill-rule:nonzero}
    .fil1 {fill:url(#id0)}
   ]]>
  </style>
  <linearGradient id="id0" gradientUnits="userSpaceOnUse" x1="150.58" y1="427.908" x2="285.849" y2="138.344">
   <stop offset="0" style="stop-opacity:1; stop-color:#9C27B0"/>
   <stop offset="1" style="stop-opacity:1; stop-color:#C152D4"/>
  </linearGradient>
 </defs>
 <g id="Layer_x0020_1">
  <metadata id="CorelCorpID_0Corel-Layer"/>
  <g id="_1498738743008">
   <g>
    <path class="fil0" d="M657.191 241.21l-10.285 -10.286c10.285,-15.474 16.241,-33.926 16.241,-53.731 0,-54.542 -44.123,-98.665 -98.531,-98.665 -54.407,0 -98.528,44.123 -98.528,98.665 0,54.543 44.121,98.665 98.528,98.665 19.761,0 38.167,-5.955 53.596,-16.241l10.286 10.286c4.061,4.06 9.205,5.955 14.347,5.955 5.143,0 10.287,-1.895 14.346,-5.955 7.85,-7.85 7.85,-20.572 0,-28.422l0 -0.271zm-92.846 -5.685c-32.211,0 -58.197,-26.03 -58.197,-58.332 0,-32.301 25.986,-58.333 58.197,-58.333 32.212,0 58.199,26.032 58.199,58.333 0,8.707 -1.895,16.828 -5.413,24.136l-38.437 -38.527c-7.841,-7.859 -20.585,-7.861 -28.423,0 -7.862,7.884 -7.864,20.63 0,28.512l38.438 38.528c-7.31,3.518 -15.43,5.412 -24.093,5.412l-0.271 0.271zm178.653 39.25c36.542,0 66.318,-29.775 66.318,-66.318l0 -51.972c0,-10.826 -8.661,-19.489 -19.49,-19.489 -10.826,0 -19.489,8.663 -19.489,19.489l0 51.972c0,15.159 -12.18,27.339 -27.339,27.339 -15.159,0 -27.339,-12.18 -27.339,-27.339l0 -51.972c0,-10.826 -8.662,-19.489 -19.489,-19.489 -10.827,0 -19.488,8.663 -19.488,19.489l0 51.972c0,36.543 29.774,66.318 66.316,66.318zm103.942 -156.185c5.415,0 10.557,-2.167 14.347,-5.956 3.789,-3.789 5.956,-8.932 5.956,-14.346 0,-5.414 -2.166,-10.557 -5.956,-14.346 -7.579,-7.579 -21.112,-7.579 -28.692,0 -3.79,3.789 -5.955,8.932 -5.955,14.346 0,5.414 2.166,10.557 5.955,14.346 3.791,3.789 8.932,5.956 14.345,5.956zm0 156.185c11.1,0 20.032,-8.933 20.032,-20.03l0 -97.176c0,-11.099 -8.932,-20.031 -20.032,-20.031 -11.097,0 -20.029,8.932 -20.029,20.031l0 97.176c0,11.097 8.932,20.03 20.029,20.03zm105.569 0c17.593,0 35.189,-6.768 48.452,-20.03 7.849,-7.85 7.849,-20.573 0,-28.423 -7.851,-7.85 -20.573,-7.85 -28.423,0 -11.097,11.099 -28.963,11.099 -40.06,0 -5.414,-5.413 -8.392,-12.451 -8.392,-20.03 0,-7.579 2.978,-14.617 8.392,-20.031 11.097,-11.097 28.963,-11.098 40.06,0 7.85,7.85 20.573,7.85 28.423,0 7.849,-7.848 7.849,-20.572 0,-28.422 -26.798,-26.798 -70.38,-26.798 -97.175,0 -12.994,12.993 -20.032,30.317 -20.032,48.724 0,18.407 7.038,35.73 20.032,48.723 13.262,13.263 30.857,20.031 48.452,20.031l0.271 -0.542zm186.231 -37.354l-53.055 -32.212 53.055 -32.211c9.444,-5.733 12.45,-18.138 6.767,-27.61 -5.684,-9.475 -18.163,-12.497 -27.611,-6.768l-50.889 30.858 0 -70.648c0,-11.099 -8.932,-20.031 -20.03,-20.031 -11.098,0 -20.03,8.934 -20.03,20.031l0 155.915c0,11.097 8.932,20.03 20.03,20.03 11.098,0 20.03,-8.933 20.03,-20.03l0 -13.535 50.889 30.858c3.216,1.95 6.768,2.707 10.286,2.707 6.768,0 13.559,-3.504 17.325,-9.744 5.708,-9.459 2.675,-21.876 -6.767,-27.61zm226.275 38.707c11.099,0 20.302,-9.203 20.302,-20.301l0 -156.997c0,-8.392 -5.414,-15.971 -13.264,-18.949 -7.85,-2.977 -16.782,-0.54 -22.196,5.956l-64.964 76.333 -64.965 -76.333c-5.413,-6.496 -14.345,-8.933 -22.195,-5.956 -7.85,2.978 -13.264,10.557 -13.264,18.949l0 156.997c0,11.098 9.203,20.301 20.301,20.301 11.098,0 20.301,-9.203 20.301,-20.301l0 -102.049 44.663 52.514c3.79,4.601 9.475,7.308 15.429,7.308 5.955,0 11.64,-2.707 15.429,-7.308l44.664 -52.514 0 102.049c0,11.098 9.203,20.301 20.301,20.301l-0.542 0zm154.019 -138.59c-6.495,0 -12.451,3.247 -16.24,8.121 -9.745,-4.874 -20.843,-7.85 -32.482,-7.85 -37.897,0 -68.755,30.858 -68.755,68.618 0,37.761 30.858,68.619 68.755,68.619 11.639,0 22.737,-2.978 32.482,-8.121 3.789,4.872 9.745,8.121 16.24,8.121 11.099,0 20.032,-8.933 20.032,-20.031l0 -96.905c0,-11.098 -8.933,-20.03 -20.032,-20.03l0 -0.542zm-48.452 97.447c-15.699,0 -28.421,-12.632 -28.421,-28.287 0,-15.655 12.722,-28.287 28.421,-28.287 15.7,0 28.422,12.632 28.422,28.287 0,15.655 -12.722,28.287 -28.422,28.287zm194.352 -0.542c-15.699,0 -28.421,-12.632 -28.421,-28.287l0 -28.286 22.737 0c11.098,0 20.031,-8.933 20.031,-20.031 0,-11.098 -8.933,-20.03 -20.031,-20.03l-22.737 0 0 -38.889c0,-11.143 -8.934,-20.121 -20.032,-20.121 -11.097,0 -20.03,8.978 -20.03,20.121l0 38.889 -20.302 0c-11.097,0 -20.03,8.932 -20.03,20.03 0,11.098 8.933,20.031 20.03,20.031l20.302 0 0 28.286c0,37.761 30.858,68.619 68.754,68.619 11.098,0 20.03,-8.933 20.03,-20.03 0,-11.099 -8.932,-20.031 -20.03,-20.031l-0.271 -0.271zm107.462 -96.634c-10.015,0 -19.489,2.165 -28.152,6.225l0 -45.114c0,-11.143 -8.932,-20.121 -20.03,-20.121 -11.098,0 -20.03,8.978 -20.03,20.121l0 156.095c0,11.098 8.932,20.031 20.03,20.031 11.098,0 20.03,-8.933 20.03,-20.031l0 -48.452c0,-15.7 12.723,-28.422 28.423,-28.422 15.699,0 28.421,12.722 28.421,28.422l0 48.452c0,11.098 8.934,20.031 20.031,20.031 11.099,0 20.031,-8.933 20.031,-20.031l0 -48.452c0,-37.896 -30.859,-68.754 -68.754,-68.754z"/>
    <path class="fil0" d="M478.297 380.956l21.545 0c-3.548,-10.029 -7.124,-19.956 -10.73,-29.799 -3.633,9.985 -7.238,19.914 -10.815,29.799zm-17.053 22.846l23.677 -61.028 8.555 0 23.804 61.028 -8.755 0 -6.294 -16.309 -26.109 0 -6.165 16.309 -8.713 0zm85.378 -5.322c4.048,0 7.167,-1.502 9.369,-4.492 2.19,-2.989 3.291,-6.923 3.291,-11.816 0,-4.864 -1.101,-8.769 -3.291,-11.716 -2.202,-2.947 -5.307,-4.421 -9.327,-4.421 -4.134,0 -7.367,1.531 -9.699,4.592 -2.332,3.062 -3.505,7.096 -3.505,12.088 0,4.75 1.144,8.57 3.434,11.445 2.288,2.876 5.535,4.32 9.728,4.32zm-20.615 23.262l0 -48.454c0,-1.874 -0.158,-6.037 -0.473,-12.489l8.098 0 0.043 7.711c0.8,-2.375 2.56,-4.421 5.279,-6.152 2.703,-1.745 5.75,-2.603 9.14,-2.603 5.809,0 10.458,2.06 13.949,6.194 3.49,4.148 5.236,9.47 5.236,15.979 0,6.625 -1.76,12.075 -5.294,16.381 -3.533,4.306 -8.225,6.452 -14.062,6.452 -3.405,0 -6.438,-0.787 -9.099,-2.39 -2.646,-1.587 -4.377,-3.433 -5.149,-5.521l0 24.892 -7.668 0zm52.932 -17.94l0 -62.287 7.71 0 0 62.287 -7.71 0zm21.874 -53.861l0 -7.167 7.625 0 0 7.167 -7.625 0zm-0.044 53.861l0 -43.003 7.669 0 0 43.003 -7.669 0zm21.873 0l0 -62.287 7.711 0 0 37.681 18.655 -18.397 10.558 0 -21.802 20.5 23.304 22.503 -10.228 0 -20.487 -20.328 0 20.328 -7.711 0zm65.049 -5.365c4.278,0 7.54,-1.487 9.785,-4.463 2.247,-2.975 3.377,-6.982 3.377,-12.002 0,-4.749 -1.145,-8.598 -3.448,-11.559 -2.289,-2.947 -5.551,-4.421 -9.8,-4.421 -4.477,0 -7.868,1.488 -10.2,4.45 -2.346,2.961 -3.504,6.838 -3.504,11.644 0,4.835 1.173,8.769 3.518,11.803 2.346,3.032 5.766,4.548 10.272,4.548zm-1.088 6.28c-3.217,0 -6.136,-0.6 -8.74,-1.802 -2.618,-1.202 -4.764,-2.818 -6.452,-4.878 -1.703,-2.046 -2.99,-4.42 -3.905,-7.124 -0.902,-2.689 -1.36,-5.565 -1.36,-8.612 0,-4.192 0.816,-7.983 2.447,-11.374 1.645,-3.404 4.02,-6.123 7.153,-8.154 3.132,-2.045 6.753,-3.062 10.857,-3.062 3.048,0 5.809,0.745 8.312,2.218 2.504,1.488 4.392,3.39 5.68,5.708l0 -6.838 7.625 0 0 43.003 -7.711 0 0 -7.338c-1.23,2.574 -3.061,4.592 -5.493,6.065 -2.418,1.459 -5.236,2.188 -8.413,2.188zm50.372 0c-3.72,0 -6.996,-0.557 -9.829,-1.673 -2.846,-1.116 -5.036,-2.289 -6.609,-3.519l2.146 -5.737c1.587,1.173 3.619,2.232 6.094,3.176 2.475,0.959 4.993,1.431 7.569,1.431 5.693,0 8.539,-2.089 8.539,-6.28 0,-1.76 -0.643,-3.077 -1.916,-3.948 -1.288,-0.859 -3.791,-1.932 -7.51,-3.177l-3.692 -1.259c-1.416,-0.5 -2.632,-0.987 -3.619,-1.43 -0.988,-0.444 -1.989,-1.016 -3.004,-1.703 -1.002,-0.672 -1.818,-1.416 -2.433,-2.218 -0.601,-0.8 -1.101,-1.758 -1.488,-2.889 -0.371,-1.13 -0.558,-2.403 -0.558,-3.834 0,-2.045 0.43,-3.848 1.274,-5.422 0.859,-1.588 2.018,-2.832 3.504,-3.733 1.474,-0.916 3.119,-1.603 4.908,-2.06 1.788,-0.459 3.705,-0.687 5.78,-0.687 5.665,0 10.443,1.245 14.334,3.733l-2.132 5.523c-3.777,-2.003 -7.554,-3.019 -11.315,-3.019 -2.776,0 -4.908,0.486 -6.424,1.43 -1.502,0.945 -2.261,2.289 -2.261,4.021 0,1.573 0.459,2.717 1.36,3.462 0.915,0.743 2.718,1.602 5.436,2.574 2.431,0.816 3.862,1.303 4.306,1.474 1.76,0.615 3.176,1.144 4.234,1.588 1.074,0.443 2.203,1.044 3.42,1.774 1.216,0.744 2.16,1.517 2.803,2.332 0.658,0.815 1.202,1.831 1.646,3.047 0.429,1.216 0.644,2.59 0.644,4.12 0,2.289 -0.43,4.291 -1.302,6.023 -0.858,1.717 -2.031,3.046 -3.519,4.02 -1.474,0.958 -3.091,1.673 -4.822,2.16 -1.731,0.472 -3.591,0.7 -5.564,0.7zm26.523 -54.776l0 -7.167 7.625 0 0 7.167 -7.625 0zm-0.043 53.861l0 -43.003 7.668 0 0 43.003 -7.668 0zm103.646 -53.861l0 -7.167 7.625 0 0 7.167 -7.625 0zm-0.043 53.861l0 -43.003 7.668 0 0 43.003 -7.668 0zm22.002 0l0 -31.773c0,-1.445 -0.157,-5.193 -0.472,-11.23l8.011 0 0.086 6.952c1.144,-2.503 2.975,-4.477 5.494,-5.907 2.503,-1.417 5.264,-2.133 8.253,-2.133 3.077,0 5.766,0.816 8.07,2.433 2.302,1.616 3.976,3.905 5.007,6.867 1.559,-2.905 3.676,-5.179 6.351,-6.824 2.661,-1.646 5.679,-2.476 9.028,-2.476 4.892,0 8.597,1.56 11.129,4.679 2.532,3.104 3.791,7.482 3.791,13.089l0 26.323 -7.711 0 0 -25.693c0,-3.805 -0.643,-6.766 -1.931,-8.899 -1.288,-2.145 -3.262,-3.218 -5.952,-3.218 -3.432,0 -6.394,1.259 -8.868,3.762 -2.462,2.49 -3.791,5.58 -3.949,9.242l0 24.806 -7.711 0 0 -26.366c0,-3.432 -0.672,-6.194 -2.017,-8.297 -1.345,-2.089 -3.476,-3.147 -6.41,-3.147 -3.39,0 -6.25,1.13 -8.598,3.405 -2.346,2.26 -3.633,4.993 -3.848,8.212l0 26.193 -7.753 0zm99.869 -5.365c4.078,0 7.21,-1.502 9.37,-4.491 2.161,-2.99 3.247,-7.025 3.247,-12.103 0,-4.721 -1.116,-8.541 -3.347,-11.46 -2.246,-2.932 -5.336,-4.391 -9.313,-4.391 -4.221,0 -7.568,1.502 -10.057,4.492 -2.489,2.99 -3.734,6.881 -3.734,11.688 0,4.864 1.245,8.784 3.719,11.774 2.476,2.989 5.837,4.491 10.115,4.491zm1.015 6.28c-3.447,0 -6.466,-0.771 -9.084,-2.346 -2.604,-1.559 -4.478,-3.518 -5.594,-5.864l-0.043 7.295 -7.881 0c0.199,-6.509 0.3,-10.285 0.3,-11.316l0 -50.971 7.754 0 0 26.58c1.029,-2.26 2.832,-4.221 5.378,-5.894 2.561,-1.66 5.651,-2.49 9.285,-2.49 5.952,0 10.701,2.003 14.235,6.01 3.532,4.019 5.307,9.355 5.307,16.036 0,6.895 -1.846,12.46 -5.536,16.652 -3.692,4.206 -8.399,6.308 -14.121,6.308zm31.173 -54.776l0 -7.167 7.625 0 0 7.167 -7.625 0zm-0.043 53.861l0 -43.003 7.668 0 0 43.003 -7.668 0zm22.003 0l0 -31.101c0,-1.902 -0.043,-3.834 -0.115,-5.822 -0.072,-1.988 -0.143,-3.49 -0.23,-4.521l-0.128 -1.559 7.969 0 0.085 6.752c1.474,-2.46 3.548,-4.377 6.223,-5.765 2.661,-1.387 5.48,-2.075 8.441,-2.075 5.422,0 9.413,1.646 11.988,4.922 2.575,3.29 3.862,8.269 3.862,14.95l0 24.219 -7.71 0 0 -24.176c0,-4.678 -0.701,-8.112 -2.103,-10.315 -1.403,-2.203 -3.849,-3.319 -7.382,-3.319 -3.233,0 -6.18,1.101 -8.841,3.291 -2.647,2.202 -4.091,4.721 -4.306,7.567l0 26.952 -7.753 0zm69.612 -6.623c4.363,0 7.668,-1.417 9.942,-4.249 2.261,-2.833 3.391,-6.652 3.391,-11.43 0,-4.721 -1.13,-8.484 -3.377,-11.288 -2.245,-2.804 -5.379,-4.22 -9.412,-4.22 -4.106,0 -7.325,1.488 -9.671,4.45 -2.346,2.961 -3.534,6.838 -3.534,11.644 0,4.778 1.116,8.498 3.319,11.13 2.204,2.647 5.322,3.963 9.342,3.963zm-0.958 24.147c-5.652,0 -10.944,-1.214 -15.88,-3.647l1.202 -6.666c4.763,2.703 9.541,4.063 14.377,4.063 4.592,0 8.14,-1.231 10.643,-3.692 2.518,-2.461 3.777,-6.166 3.777,-11.144l0 -4.492c-1.202,2.16 -2.933,3.935 -5.221,5.35 -2.275,1.417 -5.079,2.117 -8.398,2.117 -5.951,0 -10.801,-1.888 -14.563,-5.679 -3.763,-3.791 -5.637,-8.912 -5.637,-15.364 0,-4.377 0.759,-8.255 2.289,-11.602 1.517,-3.362 3.82,-6.008 6.896,-7.94 3.061,-1.945 6.724,-2.919 10.972,-2.919 3.276,0 6.052,0.702 8.34,2.089 2.289,1.402 4.063,3.19 5.322,5.365l0.129 -6.366 7.968 0c-0.314,4.635 -0.472,8.498 -0.472,11.573l0 25.564c0,3.406 -0.415,6.51 -1.244,9.3 -0.844,2.789 -2.117,5.25 -3.848,7.382 -1.717,2.117 -3.978,3.762 -6.81,4.95 -2.819,1.173 -6.095,1.758 -9.842,1.758zm54.948 -22.889c4.278,0 7.54,-1.487 9.785,-4.463 2.247,-2.975 3.377,-6.982 3.377,-12.002 0,-4.749 -1.145,-8.598 -3.448,-11.559 -2.289,-2.947 -5.551,-4.421 -9.8,-4.421 -4.477,0 -7.868,1.488 -10.2,4.45 -2.346,2.961 -3.504,6.838 -3.504,11.644 0,4.835 1.173,8.769 3.518,11.803 2.346,3.032 5.766,4.548 10.272,4.548zm-1.088 6.28c-3.217,0 -6.136,-0.6 -8.74,-1.802 -2.618,-1.202 -4.764,-2.818 -6.452,-4.878 -1.703,-2.046 -2.99,-4.42 -3.905,-7.124 -0.902,-2.689 -1.36,-5.565 -1.36,-8.612 0,-4.192 0.816,-7.983 2.447,-11.374 1.645,-3.404 4.02,-6.123 7.153,-8.154 3.132,-2.045 6.753,-3.062 10.857,-3.062 3.048,0 5.809,0.745 8.312,2.218 2.504,1.488 4.392,3.39 5.68,5.708l0 -6.838 7.625 0 0 43.003 -7.711 0 0 -7.338c-1.23,2.574 -3.061,4.592 -5.493,6.065 -2.418,1.459 -5.236,2.188 -8.413,2.188zm36.08 -0.915l0 -31.101c0,-1.902 -0.043,-3.834 -0.114,-5.822 -0.072,-1.988 -0.144,-3.49 -0.23,-4.521l-0.128 -1.559 7.969 0 0.085 6.752c1.474,-2.46 3.548,-4.377 6.223,-5.765 2.661,-1.387 5.479,-2.075 8.441,-2.075 5.422,0 9.412,1.646 11.988,4.922 2.575,3.29 3.862,8.269 3.862,14.95l0 24.219 -7.71 0 0 -24.176c0,-4.678 -0.701,-8.112 -2.103,-10.315 -1.403,-2.203 -3.849,-3.319 -7.382,-3.319 -3.233,0 -6.18,1.101 -8.841,3.291 -2.647,2.202 -4.092,4.721 -4.307,7.567l0 26.952 -7.753 0zm138.939 -25.693l24.692 0c-0.286,-3.934 -1.431,-6.967 -3.433,-9.098 -2.017,-2.117 -4.707,-3.176 -8.055,-3.176 -3.518,0 -6.466,1.087 -8.827,3.261 -2.359,2.19 -3.82,5.18 -4.377,9.013zm14.163 26.608c-6.839,0 -12.275,-2.03 -16.295,-6.093 -4.019,-4.063 -6.037,-9.456 -6.037,-16.195 0,-6.623 1.931,-12.06 5.809,-16.323 3.862,-4.262 8.983,-6.395 15.35,-6.395 4.034,0 7.467,0.931 10.342,2.805 2.862,1.874 4.979,4.42 6.367,7.625 1.388,3.218 2.074,6.952 2.074,11.201 0,0.529 -0.043,1.216 -0.128,2.046l-31.845 0c0.071,4.807 1.459,8.512 4.148,11.13 2.675,2.618 6.223,3.919 10.644,3.919 5.135,0 9.685,-1.587 13.662,-4.778l2.303 5.694c-4.607,3.576 -10.071,5.364 -16.394,5.364zm29.728 -0.915l0 -62.287 7.71 0 0 62.287 -7.71 0zm40.4 -5.365c4.277,0 7.539,-1.487 9.785,-4.463 2.246,-2.975 3.376,-6.982 3.376,-12.002 0,-4.749 -1.145,-8.598 -3.448,-11.559 -2.288,-2.947 -5.55,-4.421 -9.8,-4.421 -4.477,0 -7.867,1.488 -10.199,4.45 -2.346,2.961 -3.505,6.838 -3.505,11.644 0,4.835 1.173,8.769 3.519,11.803 2.346,3.032 5.765,4.548 10.272,4.548zm-1.088 6.28c-3.218,0 -6.137,-0.6 -8.741,-1.802 -2.617,-1.202 -4.764,-2.818 -6.452,-4.878 -1.702,-2.046 -2.99,-4.42 -3.905,-7.124 -0.902,-2.689 -1.359,-5.565 -1.359,-8.612 0,-4.192 0.815,-7.983 2.446,-11.374 1.645,-3.404 4.021,-6.123 7.153,-8.154 3.133,-2.045 6.753,-3.062 10.858,-3.062 3.047,0 5.808,0.745 8.312,2.218 2.503,1.488 4.392,3.39 5.679,5.708l0 -6.838 7.626 0 0 43.003 -7.711 0 0 -7.338c-1.23,2.574 -3.062,4.592 -5.494,6.065 -2.418,1.459 -5.236,2.188 -8.412,2.188zm35.493 -54.432l0 -7.511 7.668 0 0 7.511 -7.668 0zm-5.952 71.242c-1.788,0 -3.562,-0.157 -5.335,-0.5l0 -6.324c1.459,0.329 2.689,0.501 3.69,0.501 2.633,0 4.592,-1.045 5.894,-3.147 1.302,-2.089 1.945,-5.351 1.945,-9.757l0 -41.501 7.297 0 0 38.639c0,1.575 -0.043,3.006 -0.1,4.307 -0.071,1.287 -0.229,2.718 -0.444,4.292 -0.229,1.559 -0.53,2.962 -0.901,4.192 -0.386,1.23 -0.916,2.446 -1.588,3.647 -0.686,1.202 -1.488,2.204 -2.417,2.99 -0.916,0.802 -2.06,1.445 -3.434,1.932 -1.374,0.487 -2.904,0.729 -4.607,0.729zm45.98 -23.09c4.277,0 7.539,-1.487 9.785,-4.463 2.247,-2.975 3.376,-6.982 3.376,-12.002 0,-4.749 -1.144,-8.598 -3.447,-11.559 -2.289,-2.947 -5.551,-4.421 -9.8,-4.421 -4.478,0 -7.868,1.488 -10.2,4.45 -2.346,2.961 -3.505,6.838 -3.505,11.644 0,4.835 1.173,8.769 3.519,11.803 2.346,3.032 5.766,4.548 10.272,4.548zm-1.088 6.28c-3.218,0 -6.137,-0.6 -8.74,-1.802 -2.618,-1.202 -4.764,-2.818 -6.452,-4.878 -1.703,-2.046 -2.99,-4.42 -3.905,-7.124 -0.902,-2.689 -1.36,-5.565 -1.36,-8.612 0,-4.192 0.816,-7.983 2.446,-11.374 1.646,-3.404 4.021,-6.123 7.154,-8.154 3.132,-2.045 6.752,-3.062 10.857,-3.062 3.047,0 5.809,0.745 8.312,2.218 2.504,1.488 4.392,3.39 5.679,5.708l0 -6.838 7.626 0 0 43.003 -7.711 0 0 -7.338c-1.23,2.574 -3.061,4.592 -5.493,6.065 -2.419,1.459 -5.236,2.188 -8.413,2.188zm36.151 -0.915l0 -32.445c0,-0.944 -0.043,-2.303 -0.143,-4.063 -0.099,-1.76 -0.186,-3.276 -0.272,-4.563l-0.128 -1.932 8.182 0 0.087 6.71c2.589,-5.151 6.423,-7.711 11.472,-7.711 1.603,0 3.047,0.157 4.364,0.5l-0.043 6.824c-1.645,-0.443 -3.233,-0.658 -4.735,-0.658 -3.304,0 -5.951,1.145 -7.968,3.448 -2.003,2.303 -3.019,5.622 -3.019,9.956l0 23.934 -7.797 0zm126.723 0l0 -31.101c0,-1.902 -0.044,-3.834 -0.115,-5.822 -0.072,-1.988 -0.143,-3.49 -0.23,-4.521l-0.128 -1.559 7.969 0 0.085 6.752c1.474,-2.46 3.548,-4.377 6.223,-5.765 2.661,-1.387 5.48,-2.075 8.44,-2.075 5.423,0 9.413,1.646 11.989,4.922 2.575,3.29 3.862,8.269 3.862,14.95l0 24.219 -7.71 0 0 -24.176c0,-4.678 -0.701,-8.112 -2.103,-10.315 -1.403,-2.203 -3.849,-3.319 -7.382,-3.319 -3.233,0 -6.18,1.101 -8.841,3.291 -2.647,2.202 -4.091,4.721 -4.306,7.567l0 26.952 -7.753 0zm52.145 0l0 -62.287 7.71 0 0 62.287 -7.71 0zm21.874 -53.861l0 -7.167 7.624 0 0 7.167 -7.624 0zm-0.044 53.861l0 -43.003 7.668 0 0 43.003 -7.668 0zm22.003 0l0 -31.101c0,-1.902 -0.043,-3.834 -0.115,-5.822 -0.072,-1.988 -0.143,-3.49 -0.23,-4.521l-0.128 -1.559 7.969 0 0.085 6.752c1.474,-2.46 3.548,-4.377 6.223,-5.765 2.661,-1.387 5.48,-2.075 8.441,-2.075 5.422,0 9.412,1.646 11.988,4.922 2.575,3.29 3.862,8.269 3.862,14.95l0 24.219 -7.71 0 0 -24.176c0,-4.678 -0.701,-8.112 -2.103,-10.315 -1.403,-2.203 -3.849,-3.319 -7.382,-3.319 -3.233,0 -6.18,1.101 -8.84,3.291 -2.647,2.202 -4.092,4.721 -4.307,7.567l0 26.952 -7.753 0zm57.123 -25.693l24.692 0c-0.286,-3.934 -1.431,-6.967 -3.433,-9.098 -2.017,-2.117 -4.707,-3.176 -8.055,-3.176 -3.518,0 -6.465,1.087 -8.827,3.261 -2.359,2.19 -3.819,5.18 -4.377,9.013zm14.163 26.608c-6.838,0 -12.275,-2.03 -16.295,-6.093 -4.019,-4.063 -6.037,-9.456 -6.037,-16.195 0,-6.623 1.932,-12.06 5.809,-16.323 3.862,-4.262 8.983,-6.395 15.35,-6.395 4.034,0 7.467,0.931 10.343,2.805 2.861,1.874 4.978,4.42 6.366,7.625 1.388,3.218 2.074,6.952 2.074,11.201 0,0.529 -0.043,1.216 -0.128,2.046l-31.845 0c0.071,4.807 1.459,8.512 4.148,11.13 2.675,2.618 6.223,3.919 10.644,3.919 5.135,0 9.685,-1.587 13.662,-4.778l2.303 5.694c-4.607,3.576 -10.071,5.364 -16.394,5.364zm-1008.908 -36.122l10.615 0c8.999,0 13.491,-3.318 13.491,-9.97 0,-3.434 -1.23,-5.809 -3.691,-7.124 -2.46,-1.317 -6.165,-1.975 -11.145,-1.975l-9.27 0 0 19.069zm0.043 28.369l12.332 0c4.721,0 8.326,-0.916 10.83,-2.761 2.503,-1.845 3.748,-4.492 3.748,-7.968 0,-4.078 -1.188,-6.924 -3.577,-8.569 -2.389,-1.631 -6.423,-2.446 -12.088,-2.446l-11.245 0 0 21.744zm-8.04 6.838l0 -61.028 16.138 0c1.817,0 3.49,0.057 5.05,0.157 1.545,0.086 3.175,0.272 4.878,0.544 1.702,0.257 3.233,0.614 4.592,1.058 1.359,0.458 2.661,1.059 3.934,1.831 1.273,0.773 2.332,1.66 3.162,2.675 0.844,1.031 1.516,2.275 2.017,3.734 0.5,1.474 0.758,3.09 0.758,4.878 0,3.391 -0.844,6.267 -2.532,8.642 -1.702,2.375 -4.206,4.019 -7.525,4.949 4.106,0.687 7.296,2.389 9.57,5.064 2.275,2.69 3.42,6.066 3.42,10.144 0,5.035 -1.888,9.184 -5.665,12.446 -3.763,3.276 -9.142,4.906 -16.138,4.906l-21.659 0zm476.356 -35.207l10.615 0c8.999,0 13.491,-3.318 13.491,-9.97 0,-3.434 -1.23,-5.809 -3.691,-7.124 -2.46,-1.317 -6.166,-1.975 -11.144,-1.975l-9.271 0 0 19.069zm0.044 28.369l12.331 0c4.721,0 8.326,-0.916 10.83,-2.761 2.503,-1.845 3.748,-4.492 3.748,-7.968 0,-4.078 -1.188,-6.924 -3.577,-8.569 -2.389,-1.631 -6.422,-2.446 -12.087,-2.446l-11.245 0 0 21.744zm-8.041 6.838l0 -61.028 16.138 0c1.817,0 3.491,0.057 5.05,0.157 1.545,0.086 3.176,0.272 4.878,0.544 1.702,0.257 3.233,0.614 4.592,1.058 1.359,0.458 2.661,1.059 3.934,1.831 1.274,0.773 2.332,1.66 3.162,2.675 0.844,1.031 1.516,2.275 2.017,3.734 0.5,1.474 0.758,3.09 0.758,4.878 0,3.391 -0.844,6.267 -2.532,8.642 -1.702,2.375 -4.205,4.019 -7.525,4.949 4.106,0.687 7.296,2.389 9.571,5.064 2.274,2.69 3.419,6.066 3.419,10.144 0,5.035 -1.888,9.184 -5.665,12.446 -3.763,3.276 -9.142,4.906 -16.137,4.906l-21.66 0zm339.909 0.915c-9.228,0 -16.481,-2.832 -21.774,-8.496 -5.294,-5.68 -7.94,-13.333 -7.94,-22.976 0,-6.223 1.159,-11.717 3.491,-16.452 2.332,-4.734 5.765,-8.44 10.286,-11.101 4.534,-2.675 9.871,-4.005 16.022,-4.005 8.955,0 16.108,2.903 21.43,8.697 5.322,5.794 7.983,13.419 7.983,22.861 0,9.614 -2.618,17.267 -7.882,22.947 -5.251,5.693 -12.461,8.525 -21.616,8.525zm-0.087 -6.737c6.81,0 12.003,-2.203 15.551,-6.61 3.548,-4.391 5.322,-10.443 5.322,-18.125 0,-7.51 -1.788,-13.534 -5.35,-18.04 -3.563,-4.506 -8.713,-6.767 -15.436,-6.767 -6.71,0 -11.918,2.275 -15.623,6.81 -3.69,4.536 -5.55,10.544 -5.55,17.997 0,7.654 1.816,13.69 5.451,18.111 3.633,4.406 8.84,6.624 15.635,6.624z"/>
   </g>
   <g>
    <path class="fil1" d="M4.006 74.693l0 0.904c0,97.847 0,195.693 0,293.539 0,3.626 -0.078,7.962 1.84,11.17 1.84,3.076 5.52,5.174 9.503,6.62 1.711,0.621 3.478,1.121 5.279,1.679 37.618,6.938 74.113,14.341 101.837,25.381 22.262,8.866 38.868,20.076 53.778,31.989 3.176,2.134 6.314,3.91 9.793,5.019 6.231,1.986 13.554,1.835 19.382,-0.212 1.635,-0.575 3.152,-1.298 4.585,-2.129 3.222,-2.636 6.511,-5.244 9.91,-7.807l0.001 -0.001 0.001 0c12.207,-9.204 25.825,-17.823 42.793,-25.053 0.718,-0.463 1.465,-0.89 2.128,-1.335 1.941,-1.302 3.159,-2.751 3.901,-4.653 0.742,-1.903 1.009,-4.261 0.948,-6.065 -0.039,-1.132 -0.207,-2.046 -0.833,-4.197 -4.615,-14.501 -9.172,-29.053 -13.454,-43.629 -0.879,-2.815 -1.601,-4.999 -2.256,-6.689 -1.334,-3.442 -2.393,-4.838 -3.545,-6.247 -1.151,-1.407 -2.393,-2.827 -4.691,-3.582 -2.298,-0.755 -5.651,-0.845 -10.595,0.773 -4.946,1.618 -11.483,4.944 -14.986,6.733 -1.092,0.558 -1.89,0.966 -2.46,1.231 -7.289,3.891 -14.688,8.002 -22.087,12.112 -20.258,-11.255 -40.518,-22.51 -58.526,-29.263 -9.585,-3.595 -18.533,-5.914 -27.182,-7.636 -1.458,-0.426 -2.899,-0.841 -4.296,-1.28 -5.348,-1.679 -10.064,-3.711 -12.967,-5.97 -2.901,-2.258 -3.989,-4.743 -4.533,-15.984 -0.225,-4.663 -0.357,-10.831 -0.543,-16.974l0 -115.327c0.085,-0.745 0.085,-1.8 0.085,-3.183 0,-3.076 0,-7.78 0.611,-11.107 0.609,-3.328 1.83,-5.281 4.574,-6.005 2.744,-0.725 7.012,-0.223 11.988,0.824 3.791,0.797 7.994,1.91 11.126,2.623 9.061,2.683 18.087,6.089 27.046,10.913 12.557,6.761 24.488,15.879 35.813,25.374 1.73,1.29 3.47,2.562 5.089,3.664 5.112,3.478 9.002,5.251 12.776,5.013 3.775,-0.238 7.435,-2.486 11.301,-5.301 1.121,-0.816 2.26,-1.679 3.422,-2.519 11.629,-9.802 23.901,-19.267 36.833,-26.231 8.868,-4.775 17.801,-8.16 26.769,-10.831 3.165,-0.707 7.55,-1.876 11.49,-2.705 4.975,-1.047 9.243,-1.549 11.988,-0.824 2.744,0.724 3.964,2.677 4.574,6.005 0.572,3.119 0.608,7.448 0.61,10.512l0 1.153 0 81.608c0.307,3.558 0.554,7.05 1.002,9.774 1.002,6.094 3.006,8.342 5.224,10.162 2.218,1.821 4.651,3.213 6.561,4.086 1.207,0.552 2.205,0.897 5.113,1.697 2.112,0.552 4.214,1.117 6.295,1.683l1.152 0.305c9.263,2.457 26.404,7.016 36.347,9.659 9.943,2.643 12.69,3.371 14.996,2.348 2.305,-1.023 4.17,-3.797 5.102,-8.615 0.46,-2.381 0.693,-5.262 0.932,-8.459l0 -208.419c-0.476,-2.064 -0.92,-3.907 -1.777,-5.552 -1.776,-3.411 -5.329,-5.973 -9.284,-7.098 -3.956,-1.125 -8.313,-0.814 -14.109,-0.324 -2.554,0.217 -5.385,0.468 -8.059,0.61 -23.59,2.113 -46.763,5.463 -68.628,12.701 -19.58,6.482 -38.111,16.081 -56.234,26.896l0 -0.454c-1.926,1.384 -3.908,2.724 -5.868,4.004 -4.491,2.751 -8.961,5.565 -13.419,8.413 -2.793,1.686 -5.199,3 -7.552,3.852 -3.595,1.301 -7.068,1.521 -10.898,0.307 -2.256,-0.716 -4.637,-1.929 -6.794,-3.172 -6.608,-4.233 -13.238,-8.401 -19.922,-12.407 -0.844,-0.563 -1.671,-1.132 -2.454,-1.695l-0.396 0c-17.505,-10.343 -35.411,-19.493 -54.292,-25.744 -23.898,-7.911 -49.357,-11.177 -75.214,-13.26 -3.876,-0.056 -8.282,-0.15 -11.993,0.2 -6.163,0.581 -10.406,2.387 -12.528,6.544 -2.09,4.092 -2.122,10.462 -2.123,19.858z"/>
    <path class="fil2" d="M286.665 289.792c-10.812,-0.94 -15.514,1.88 -17.865,6.581 -2.35,4.702 -2.35,11.284 4.269,35.312 6.618,24.03 19.855,65.506 26.907,87.602 7.052,22.096 7.918,24.812 11.173,26.639 3.254,1.829 8.895,2.77 12.55,1.571 3.656,-1.199 5.325,-4.537 9.729,-15.869 4.404,-11.331 11.543,-30.655 15.41,-41.21 3.867,-10.554 4.461,-12.338 5.572,-13.603 1.111,-1.265 2.738,-2.01 14.021,-7.182 11.283,-5.172 32.222,-14.768 43.632,-20.038 11.41,-5.268 13.29,-6.209 14.701,-8.559 1.41,-2.351 2.35,-6.112 0.911,-9.414 -1.439,-3.301 -5.257,-6.145 -21.712,-11.316 -16.455,-5.171 -45.545,-12.671 -68.553,-18.772 -23.008,-6.1 -39.932,-10.801 -50.745,-11.742z"/>
   </g>
  </g>
 </g>
</svg>
